Coordinates
version=1
nRows=8
nColumns=36
inDegrees=yes

Units are S.I. units (second, meters, Newtons, ...)
If the header above contains a line with 'inDegrees', this indicates whether rotational values are in degrees (yes) or radians (no).

endheader
time	pelvis_tilt	pelvis_list	pelvis_rotation	pelvis_tx	pelvis_ty	pelvis_tz	hip_flexion_r	hip_adduction_r	hip_rotation_r	knee_angle_r	knee_angle_r_beta	ankle_angle_r	subtalar_angle_r	mtp_angle_r	hip_flexion_l	hip_adduction_l	hip_rotation_l	knee_angle_l	knee_angle_l_beta	ankle_angle_l	subtalar_angle_l	mtp_angle_l	lumbar_extension	lumbar_bending	lumbar_rotation	arm_flex_r	arm_add_r	arm_rot_r	elbow_flex_r	pro_sup_r	arm_flex_l	arm_add_l	arm_rot_l	elbow_flex_l	pro_sup_l
      0.00000000	      1.07374887	     -1.72544302	     -3.11782531	      0.20871121	      0.83226243	      0.08411433	      1.04568199	     -8.17762333	    -11.59025210	     10.29414773	      0.17966677	     10.63363710	     -4.15955517	     -5.74122686	     -0.62693874	    -16.62755157	    -12.88251296	      6.59869978	      0.11516904	      7.90645233	     -3.54900747	     -5.74122686	      0.91908049	      5.46680470	     -2.76127296	      1.38191847	     -8.14378969	     27.50027787	     22.51993553	     71.32270682	     -2.42850955	     -8.59035192	     26.33997310	     31.19168947	     66.63146942
      0.01666670	     -1.66174221	     -0.47864134	     -4.39562438	      0.21119532	      0.82982776	      0.08651211	      4.14602006	     -8.81129781	    -12.44825953	      9.08021378	      0.15847963	     13.64399997	     -2.26272068	     -6.35658013	      2.24035104	    -15.15307900	    -15.53062318	      6.58244926	      0.11488541	      9.27611296	     -1.67430669	     -6.35658013	      4.25185584	      4.50060484	     -2.58330154	      0.69484226	     -8.09171752	     26.02780155	     23.39860694	     76.60074278	     -3.84701241	     -8.24847258	     22.74184053	     31.57559457	     71.44985099
      0.03333330	     -2.49429040	      0.29767356	     -4.79342156	      0.21113900	      0.82827730	      0.09102110	      4.92550723	     -9.12047955	    -13.23154088	      8.08202971	      0.14105803	     12.41680045	     -2.26408778	     -6.50391761	      3.18825772	    -14.50611889	    -17.28702500	      6.37007724	      0.11117882	      7.77108282	     -1.48522270	     -6.50391761	      5.24730141	      3.70132447	     -2.11134748	      0.29928336	     -7.82998162	     25.07504658	     23.96669439	     75.66970378	     -3.91105813	     -8.56856652	     22.55126313	     31.05181994	     70.83702843
      0.05000000	     -2.61211119	      0.71907042	     -4.62419519	      0.21202005	      0.82487604	      0.09531488	      4.47470544	     -9.24460790	    -13.71293597	      7.00854680	      0.12232222	     12.44227878	     -1.58266885	     -7.01355217	      3.10787968	    -14.30351556	    -17.89205880	      5.66384804	      0.09885280	      6.45678721	     -2.11161777	     -7.01355217	      5.72741480	      3.16752263	     -0.83387037	     -1.18796982	     -7.06917634	     17.13927361	     24.85790857	     85.07706801	     -3.32405497	     -8.57540821	     22.80237356	     29.72311897	     75.24844000
      0.06666670	     -2.83491906	      0.70513362	     -4.75326833	      0.21248548	      0.82398737	      0.09830502	      4.42009632	     -8.80547655	    -13.60651147	      6.42561726	      0.11214818	     12.66945580	     -1.66072299	     -7.02740449	      3.26044998	    -14.54091773	    -18.23651913	      5.31108239	      0.09269587	      5.53587333	     -2.48072713	     -7.02740449	      6.14390484	      3.26045361	     -0.81553982	     -1.35827406	     -7.16944002	     17.01349419	     25.38393109	     84.68034415	     -3.85124653	     -8.65285531	     22.67794429	     29.80438816	     74.89034800
      0.08333330	     -2.67287335	      0.64315394	     -4.80634582	      0.20860221	      0.82871552	      0.10350431	      4.23106184	     -8.30222922	    -13.36727129	      6.19175563	      0.10806652	     12.77589397	     -1.66651887	     -7.04653030	      3.26517164	    -14.79089466	    -17.87408780	      5.06634624	      0.08842442	      3.81002304	     -3.94885127	     -7.04653030	      5.90315138	      3.30574911	     -0.65915607	     -1.31133369	     -7.23363802	     16.85636480	     25.66884531	     84.85440591	     -3.56636324	     -8.55813620	     22.18856964	     29.08586168	     74.56215855
      0.10000000	     -2.59555595	      0.52847992	     -4.88017802	      0.20794494	      0.82831880	      0.10770552	      4.24227661	     -7.81245442	    -13.17003791	      6.19448923	      0.10811423	     13.07996827	     -1.86479501	     -7.07674797	      3.49030014	    -15.23406791	    -17.75315869	      5.29508169	      0.09241661	      2.89913534	     -4.44283446	     -7.07674797	      5.69993280	      3.41779623	     -0.48508718	     -1.23335960	     -7.33775696	     16.97648587	     25.77607569	     84.38636722	     -3.44018245	     -8.55202307	     21.81101221	     29.00083217	     73.78624436
      0.11666670	     -2.48646894	      0.37780025	     -4.99436724	      0.20789530	      0.83022811	      0.11228135	      4.19197119	     -7.27224518	    -13.04025949	      6.21357580	      0.10844736	     13.18622645	     -1.72372930	     -7.15498912	      3.55062005	    -15.69055342	    -17.62086651	      5.41319686	      0.09447811	      1.66424803	     -5.16545927	     -7.15498912	      5.51772146	      3.53952768	     -0.42718086	     -1.08425980	     -7.42886066	     17.77782397	     25.65683459	     82.55740956	     -3.33959678	     -8.45113022	     21.44053486	     28.82661330	     71.83399063
